<svg  viewBox="0 0 87 87" fill="none" xmlns="http://www.w3.org/2000/svg">
<path fill-rule="evenodd" clip-rule="evenodd" d="M43.5 0C19.4662 0 0 19.4662 0 43.5C0 62.7487 12.4519 79.0069 29.7431 84.7706C31.9181 85.1513 32.7337 83.8463 32.7337 82.7044C32.7337 81.6713 32.6794 78.2456 32.6794 74.6025C21.75 76.6144 18.9225 71.9381 18.0525 69.4913C17.5631 68.2406 15.4425 64.38 13.5938 63.3469C12.0713 62.5313 9.89625 60.5194 13.5394 60.465C16.965 60.4106 19.4119 63.6187 20.2275 64.9237C24.1425 71.5031 30.3956 69.6544 32.8969 68.5125C33.2775 65.685 34.4194 63.7819 35.67 62.6944C25.9913 61.6069 15.8775 57.855 15.8775 41.2162C15.8775 36.4856 17.5631 32.5706 20.3363 29.5256C19.9013 28.4381 18.3787 23.9794 20.7713 17.9981C20.7713 17.9981 24.4144 16.8563 32.7337 22.4569C36.2137 21.4781 39.9112 20.9887 43.6087 20.9887C47.3062 20.9887 51.0037 21.4781 54.4837 22.4569C62.8031 16.8019 66.4462 17.9981 66.4462 17.9981C68.8387 23.9794 67.3163 28.4381 66.8813 29.5256C69.6544 32.5706 71.34 36.4312 71.34 41.2162C71.34 57.9094 61.1719 61.6069 51.4931 62.6944C53.07 64.0538 54.4294 66.6637 54.4294 70.7419C54.4294 76.56 54.375 81.2363 54.375 82.7044C54.375 83.8463 55.1906 85.2056 57.3656 84.7706C66.001 81.8551 73.5048 76.3051 78.8208 68.9017C84.1368 61.4983 86.9974 52.6143 87 43.5C87 19.4662 67.5338 0 43.5 0Z" fill="#0E566F"/>
</svg>
