<svg 
    viewBox="0 0 87 87"
    fill="none"
    xmlns="http://www.w3.org/2000/svg"
  >
    <path
      fillRule="evenodd"
      clipRule="evenodd"
      d="M43.5 0C19.4735 0 0 19.4771 0 43.5C0 67.5229 19.4735 87 43.5 87C67.5229 87 87 67.5229 87 43.5C87 19.4771 67.5229 0 43.5 0ZM44.0075 68.9402C29.986 68.9402 18.6325 57.5578 18.6325 43.5C18.6325 29.4422 29.986 18.0597 44.0075 18.0597C50.8587 18.0597 56.5863 20.5864 60.9798 24.6899L53.824 31.8601V31.8456C51.1596 29.3009 47.7811 27.9959 44.0075 27.9959C35.6338 27.9959 28.8296 35.0864 28.8296 43.4855C28.8296 51.8774 35.6338 58.9896 44.0075 58.9896C51.6055 58.9896 56.7747 54.6324 57.8405 48.6511H44.0075V38.7295H67.8781C68.1971 40.4333 68.3675 42.2095 68.3675 44.0728C68.3675 58.609 58.6634 68.9402 44.0075 68.9402Z"
      fill="#0E566F"
    />
</svg>