<?xml version="1.0" standalone="no"?>
<!DOCTYPE svg PUBLIC "-//W3C//DTD SVG 20010904//EN"
 "http://www.w3.org/TR/2001/REC-SVG-20010904/DTD/svg10.dtd">
<svg version="1.0" xmlns="http://www.w3.org/2000/svg"
 width="110.000000pt" height="110.000000pt" viewBox="0 0 110.000000 110.000000"
 preserveAspectRatio="xMidYMid meet">

<g transform="translate(0.000000,110.000000) scale(0.100000,-0.100000)"
fill="#000000" stroke="none">
<path d="M315 820 l-269 -271 274 -274 275 -275 192 192 193 193 -125 125
-125 125 82 83 83 82 -145 145 c-80 80 -149 145 -155 145 -5 0 -131 -122 -280
-270z m392 88 l103 -103 -107 -107 -108 -108 -85 85 -86 86 -19 -21 c-19 -21
-18 -21 88 -128 l107 -107 45 45 45 44 100 -99 c55 -55 100 -104 100 -110 0
-11 -281 -295 -292 -295 -5 0 -111 103 -237 229 l-229 229 232 231 c127 127
233 231 236 231 2 0 51 -46 107 -102z"/>
<path d="M532 867 l-62 -63 63 -62 63 -62 62 63 62 63 -63 62 -63 62 -62 -63z
m86 -84 l-22 -23 -23 22 -23 22 22 23 22 23 23 -22 23 -22 -22 -23z"/>
<path d="M280 615 l-65 -65 190 -190 190 -190 107 107 108 108 -62 62 -62 63
-43 -42 -43 -42 -128 127 -127 127 -65 -65z m189 -145 c66 -66 124 -120 129
-120 4 0 25 18 47 40 36 37 40 39 57 23 10 -9 18 -21 18 -27 0 -14 -112 -126
-125 -126 -6 0 -75 65 -155 145 -142 142 -144 144 -125 165 10 11 22 20 26 20
5 0 62 -54 128 -120z"/>
</g>
</svg>
